:FULLY-SPECIFIED
:FORCE-ALL-JOINTS-BE-3DOF
:DEGREES
272
root 8.46566 15.6445 -24.8202 14.9801 67.4489 15.9026
lfemur -23.4197 13.2892 -18.3458
ltibia 51.0345 -0 0
lfoot -15.081 -21.0785 -0.305713
ltoes 47.1426 -0 0
rfemur -30.9974 -0.917926 14.285
rtibia 48.7968 -0 0
rfoot -6.80849 -22.7834 1.05165
rtoes 46.5629 -0 0
lowerback 4.89803 -4.92329 -3.47673
upperback 2.59335 -6.58556 -1.42041
thorax 0.223681 -3.26189 0.756186
lowerneck -4.90093 -10.2475 -4.22031
upperneck 2.99566 -13.6077 5.00909
head 2.64071 -6.74238 1.79769
lclavicle -4.84176e-15 1.72271e-14 -1.00123e-32
lhumerus -47.4419 -39.113 110.612
lradius 61.1134 -0 0
lwrist 16.354 0 0
lhand 12.9571 13.1592 0.0297321
lfingers 7.12502 -0 0
lthumb 37.9011 38.7768 -0.0409571
rclavicle -4.84176e-15 1.72271e-14 -1.00123e-32
rhumerus -56.3785 6.51047 -87.8964
rradius 67.3588 -0 0
rwrist 15.7478 0 0
rhand -24.8125 -12.9424 -0.49137
rfingers 7.12502 -0 0
rthumb 1.69169 -42.8302 -0.468775
273
root 8.5631 15.6274 -24.774 16.253 68.8045 17.8904
lfemur -22.5675 12.6288 -18.6766
ltibia 51.2056 -0 0
lfoot -14.9162 -22.2052 -0.288769
ltoes 47.8292 -0 0
rfemur -32.1276 -1.02648 14.888
rtibia 49.3147 -0 0
rfoot -5.26897 -22.3674 0.99303
rtoes 46.1402 -0 0
lowerback 5.14971 -5.01188 -3.75278
upperback 2.80539 -6.71518 -1.67707
thorax 0.307089 -3.32868 0.660771
lowerneck -4.63814 -10.4888 -4.43644
upperneck 3.02114 -13.941 5.23693
head 2.6488 -6.90728 1.89681
lclavicle -3.95446e-15 1.72339e-14 -9.46065e-33
lhumerus -46.9863 -39.398 109.961
lradius 61.0351 -0 0
lwrist 16.3174 0 0
lhand 13.3898 13.2009 0.0280924
lfingers 7.12502 -0 0
lthumb 38.3108 38.7162 -0.0386986
rclavicle -3.95446e-15 1.72339e-14 -9.46065e-33
rhumerus -57.484 7.49006 -89.3274
rradius 67.6809 -0 0
rwrist 15.7728 0 0
rhand -25.2658 -12.2847 -0.464217
rfingers 7.12502 -0 0
rthumb 1.25399 -42.1804 -0.442873
274
root 8.65781 15.6108 -24.7291 17.701 70.1049 20.0305
lfemur -21.7374 11.9915 -19.007
ltibia 51.3721 -0 0
lfoot -14.7563 -23.3005 -0.269193
ltoes 48.4967 -0 0
rfemur -33.2275 -1.12058 15.4762
rtibia 49.8182 -0 0
rfoot -3.77277 -21.9647 0.925352
rtoes 45.7293 -0 0
lowerback 5.39482 -5.09684 -4.02155
upperback 3.01214 -6.84029 -1.92711
thorax 0.388287 -3.39347 0.567914
lowerneck -4.38151 -10.7225 -4.64786
upperneck 3.04463 -14.2652 5.4586
head 2.6564 -7.0676 1.99318
lclavicle -3.09186e-15 1.72406e-14 -8.82281e-33
lhumerus -46.5375 -39.6711 109.324
lradius 60.9591 -0 0
lwrist 16.2819 0 0
lhand 13.8105 13.2414 0.0261969
lfingers 7.12502 -0 0
lthumb 38.7091 38.6573 -0.0360875
rclavicle -3.09186e-15 1.72406e-14 -8.82281e-33
rhumerus -58.5846 8.41562 -90.7398
rradius 67.994 -0 0
rwrist 15.7971 0 0
rhand -25.7062 -11.6456 -0.432834
rfingers 7.12502 -0 0
rthumb 0.828792 -41.5488 -0.412937
275
root 8.74933 15.5948 -24.6857 19.3345 71.3414 22.3301
lfemur -20.9336 11.3802 -19.3345
ltibia 51.5329 -0 0
lfoot -14.6022 -24.3587 -0.24738
ltoes 49.1416 -0 0
rfemur -34.2911 -1.20075 16.0462
rtibia 50.3048 -0 0
rfoot -2.32772 -21.5775 0.850002
rtoes 45.3323 -0 0
lowerback 5.63204 -5.17784 -4.2816
upperback 3.21247 -6.96031 -2.16918
thorax 0.466841 -3.45595 0.478106
lowerneck -4.13261 -10.9473 -4.85322
upperneck 3.06613 -14.5784 5.67295
head 2.66349 -7.22251 2.0863
lclavicle -2.25845e-15 1.7247e-14 -8.11148e-33
lhumerus -46.0985 -39.9314 108.703
lradius 60.8856 -0 0
lwrist 16.2476 0 0
lhand 14.2169 13.2805 0.0240832
lfingers 7.12502 -0 0
lthumb 39.0939 38.6004 -0.033176
rclavicle -2.25845e-15 1.7247e-14 -8.11148e-33
rhumerus -59.6722 9.28389 -92.1246
rradius 68.2965 -0 0
rwrist 15.8206 0 0
rhand -26.1314 -11.0283 -0.397851
rfingers 7.12502 -0 0
rthumb 0.418317 -40.9389 -0.379564
276
root 8.83714 15.5794 -24.6441 21.1597 72.5054 24.7922
lfemur -20.1605 10.7979 -19.6562
ltibia 51.6871 -0 0
lfoot -14.4547 -25.3741 -0.223776
ltoes 49.7604 -0 0
rfemur -35.3124 -1.26772 16.5944
rtibia 50.7715 -0 0
rfoot -0.941601 -21.2078 0.76854
rtoes 44.9512 -0 0
lowerback 5.86005 -5.25455 -4.53148
upperback 3.40522 -7.07469 -2.40191
thorax 0.542317 -3.51579 0.391842
lowerneck -3.89284 -11.1622 -5.05137
upperneck 3.08566 -14.8792 5.87888
head 2.67005 -7.37117 2.17567
lclavicle -1.45872e-15 1.72532e-14 -7.34104e-33
lhumerus -45.6722 -40.1777 108.102
lradius 60.8151 -0 0
lwrist 16.2147 0 0
lhand 14.6069 13.318 0.0217942
lfingers 7.12502 -0 0
lthumb 39.4632 38.5458 -0.0300218
rclavicle -1.45872e-15 1.72532e-14 -7.34104e-33
rhumerus -60.7382 10.0922 -93.4723
rradius 68.5867 -0 0
rwrist 15.8432 0 0
rhand -26.5389 -10.4363 -0.359977
rfingers 7.12502 -0 0
rthumb 0.024788 -40.3538 -0.343435
277
root 8.92076 15.5647 -24.6044 23.176 73.5888 27.4132
lfemur -19.4226 10.2475 -19.9694
ltibia 51.8341 -0 0
lfoot -14.3147 -26.3409 -0.198873
ltoes 50.3497 -0 0
rfemur -36.2855 -1.3224 17.1175
rtibia 51.2161 -0 0
rfoot 0.377816 -20.8576 0.682677
rtoes 44.5884 -0 0
lowerback 6.0775 -5.32668 -4.76974
upperback 3.58925 -7.18288 -2.62395
thorax 0.614278 -3.57266 0.309618
lowerneck -3.66363 -11.3661 -5.24104
upperneck 3.10323 -15.1656 6.07507
head 2.67608 -7.51274 2.26078
lclavicle -6.97164e-16 1.7259e-14 -6.5274e-33
lhumerus -45.2618 -40.409 107.526
lradius 60.7479 -0 0
lwrist 16.1833 0 0
lhand 14.9784 13.3537 0.0193763
lfingers 7.12502 -0 0
lthumb 39.8148 38.4938 -0.0266924
rclavicle -6.97164e-16 1.7259e-14 -6.5274e-33
rhumerus -61.7736 10.8387 -94.7729
rradius 68.8631 -0 0
rwrist 15.8647 0 0
rhand -26.9267 -9.87273 -0.32
rfingers 7.12502 -0 0
rthumb -0.349595 -39.797 -0.305298
278
root 8.9997 15.5508 -24.567 25.3732 74.5844 30.1797
lfemur -18.7245 9.73152 -20.2711
ltibia 51.9727 -0 0
lfoot -14.1829 -27.2535 -0.1732
ltoes 50.9061 -0 0
rfemur -37.2046 -1.36586 17.6122
rtibia 51.6357 -0 0
rfoot 1.6228 -20.529 0.594248
rtoes 44.246 -0 0
lowerback 6.28307 -5.39394 -4.99493
upperback 3.7634 -7.28435 -2.83392
thorax 0.682286 -3.62626 0.23193
lowerneck -3.44649 -11.5579 -5.42097
upperneck 3.11891 -15.4359 6.26044
head 2.68158 -7.64639 2.34114
lclavicle 2.17319e-17 1.72646e-14 -5.68776e-33
lhumerus -44.8702 -40.6244 106.978
lradius 60.6845 -0 0
lwrist 16.1537 0 0
lhand 15.3289 13.3874 0.0168825
lfingers 7.12502 -0 0
lthumb 40.1467 38.4448 -0.0232572
rclavicle 2.17319e-17 1.72646e-14 -5.68776e-33
rhumerus -62.769 11.5218 -96.0162
rradius 69.124 -0 0
rwrist 15.885 0 0
rhand -27.2923 -9.34103 -0.278765
rfingers 7.12502 -0 0
rthumb -0.702649 -39.2715 -0.26596
279
root 9.07346 15.5379 -24.532 27.7282 75.4859 33.0655
lfemur -18.0705 9.25273 -20.5584
ltibia 52.1023 -0 0
lfoot -14.0602 -28.1062 -0.147317
ltoes 51.4259 -0 0
rfemur -38.0637 -1.3993 18.0749
rtibia 52.0277 -0 0
rfoot 2.78562 -20.2238 0.505187
rtoes 43.926 -0 0
lowerback 6.47541 -5.45606 -5.20559
upperback 3.9265 -7.3786 -3.03043
thorax 0.745902 -3.67625 0.159278
lowerneck -3.24291 -11.7365 -5.58988
upperneck 3.13275 -15.6886 6.43379
head 2.68656 -7.77128 2.41624
lclavicle 6.93475e-16 1.72698e-14 -4.84035e-33
lhumerus -44.5008 -40.8231 106.463
lradius 60.6253 -0 0
lwrist 16.1261 0 0
lhand 15.6564 13.4189 0.0143661
lfingers 7.12502 -0 0
lthumb 40.4568 38.399 -0.0197908
rclavicle 6.93475e-16 1.72698e-14 -4.84035e-33
rhumerus -63.7148 12.1407 -97.1914
rradius 69.3678 -0 0
rwrist 15.9039 0 0
rhand -27.6337 -8.84435 -0.237162
rfingers 7.12502 -0 0
rthumb -1.03227 -38.7807 -0.226271
280
root 9.14154 15.5259 -24.4997 30.2015 76.2883 36.0278
lfemur -17.4655 8.81364 -20.8282
ltibia 52.222 -0 0
lfoot -13.9472 -28.8933 -0.121806
ltoes 51.9057 -0 0
rfemur -38.857 -1.424 18.5025
rtibia 52.3898 -0 0
rfoot 3.8586 -19.9436 0.417491
rtoes 43.6307 -0 0
lowerback 6.65318 -5.51277 -5.40025
upperback 4.07737 -7.46511 -3.21212
thorax 0.804686 -3.72233 0.0921586
lowerneck -3.05438 -11.9008 -5.74647
upperneck 3.14484 -15.9219 6.59395
head 2.691 -7.88657 2.48557
lclavicle 1.31357e-15 1.72745e-14 -4.00421e-33
lhumerus -44.1566 -41.0043 105.984
lradius 60.5706 -0 0
lwrist 16.1005 0 0
lhand 15.9588 13.4479 0.0118835
lfingers 7.12502 -0 0
lthumb 40.7431 38.3568 -0.0163709
rclavicle 1.31357e-15 1.72745e-14 -4.00421e-33
rhumerus -64.6013 12.695 -98.2879
rradius 69.5929 -0 0
rwrist 15.9214 0 0
rhand -27.9484 -8.3862 -0.196145
rfingers 7.12502 -0 0
rthumb -1.33616 -38.3279 -0.187138
281
root 9.20347 15.5151 -24.4704 32.7354 76.9886 39.0058
lfemur -16.914 8.41677 -21.0773
ltibia 52.3308 -0 0
lfoot -13.8448 -29.6091 -0.0972581
ltoes 52.3421 -0 0
rfemur -39.5786 -1.44133 18.8916
rtibia 52.7189 -0 0
rfoot 4.83406 -19.6904 0.333192
rtoes 43.3621 -0 0
lowerback 6.81504 -5.56383 -5.57746
upperback 4.21485 -7.54338 -3.37758
thorax 0.858198 -3.76418 0.0310721
lowerneck -2.88242 -12.0498 -5.88945
upperneck 3.15526 -16.1341 6.73973
head 2.69492 -7.99143 2.54864
lclavicle 1.87754e-15 1.72789e-14 -3.19885e-33
lhumerus -43.841 -41.1672 105.547
lradius 60.5209 -0 0
lwrist 16.0773 0 0
lhand 16.2338 13.4743 0.00949276
lfingers 7.12502 -0 0
lthumb 41.0035 38.3184 -0.0130774
rclavicle 1.87754e-15 1.72789e-14 -3.19885e-33
rhumerus -65.4185 13.1845 -99.2948
rradius 69.7976 -0 0
rwrist 15.9373 0 0
rhand -28.2343 -7.96973 -0.156656
rfingers 7.12502 -0 0
rthumb -1.61226 -37.9163 -0.149465
282
root 9.25873 15.5053 -24.4441 35.2531 77.586 41.9193
lfemur -16.4207 8.06451 -21.3027
ltibia 52.4278 -0 0
lfoot -13.7537 -30.248 -0.0742664
ltoes 52.7317 -0 0
rfemur -40.2227 -1.45265 19.2391
rtibia 53.0127 -0 0
rfoot 5.70433 -19.4655 0.254324
rtoes 43.1223 -0 0
lowerback 6.95965 -5.60898 -5.73576
upperback 4.33777 -7.6129 -3.52545
thorax 0.905996 -3.80148 -0.0234823
lowerneck -2.72855 -12.1825 -6.01752
upperneck 3.16409 -16.3235 6.86994
head 2.69833 -8.08502 2.60493
lclavicle 2.38088e-15 1.72828e-14 -2.44393e-33
lhumerus -43.5574 -41.311 105.154
lradius 60.4765 -0 0
lwrist 16.0566 0 0
lhand 16.4792 13.4978 0.00725204
lfingers 7.12502 -0 0
lthumb 41.2358 38.2841 -0.00999064
rclavicle 2.38088e-15 1.72828e-14 -2.44393e-33
rhumerus -66.1567 13.6096 -100.201
rradius 69.9802 -0 0
rwrist 15.9515 0 0
rhand -28.4892 -7.5982 -0.119659
rfingers 7.12502 -0 0
rthumb -1.85845 -37.5491 -0.114166
283
root 9.30685 15.4969 -24.4213 37.661 78.0817 44.6715
lfemur -15.9906 7.75949 -21.5012
ltibia 52.5124 -0 0
lfoot -13.6745 -30.8041 -0.0534278
ltoes 53.0707 -0 0
rfemur -40.7836 -1.45933 19.5418
rtibia 53.2685 -0 0
rfoot 6.46175 -19.2708 0.182885
rtoes 42.9136 -0 0
lowerback 7.08566 -5.64797 -5.87368
upperback 4.44495 -7.67316 -3.65433
thorax 0.947641 -3.83391 -0.0710057
lowerneck -2.59427 -12.2977 -6.12936
upperneck 3.17142 -16.4884 6.98339
head 2.70121 -8.1665 2.65395
lclavicle 2.8191e-15 1.72862e-14 -1.75891e-33
lhumerus -43.3089 -41.435 104.811
lradius 60.4379 -0 0
lwrist 16.0385 0 0
lhand 16.6929 13.5183 0.00521907
lfingers 7.12502 -0 0
lthumb 41.4381 38.2543 -0.00718999
rclavicle 2.8191e-15 1.72862e-14 -1.75891e-33
rhumerus -66.806 13.9703 -100.996
rradius 70.1393 -0 0
rwrist 15.9639 0 0
rhand -28.7111 -7.27476 -0.0860909
rfingers 7.12502 -0 0
rthumb -2.07268 -37.2294 -0.0821404
